# xmcd
#
# Track frame offsets: 
#        150
#        8772
#        19127
#        30012
#        40432
#        53975
#        67680
#        80550
#        92070
#        106437
#        115775
#        135357
#        147877
#        165662
#        176460
#        194220
#        203605
#        214227
#        220092
#        231672
#        242802
#        257610
#        270932
#        281337
#        292745
#        321225
#        337492
#
# Disc length: 4703 seconds
#
# Revision: 0
# Processed by: cddbd v1.4PL0 Copyright (c) Steve Scherf et al.
# Submitted via: ExactAudioCopy v0.90b2
#
DISCID=86125d1b
DTITLE=The Small Faces - The Definative Anthology Of The Small Faces D
DTITLE=isc 2
DYEAR=1995
DGENRE=
TTITLE0=Give Her My Regards
TTITLE1=Imaginary Love
TTITLE2=You Really Got Me
TTITLE3=Money Money
TTITLE4=Sorry, She's Mine
TTITLE5=Its Not What You Do
TTITLE6=Real Crazy Apartment
TTITLE7=Snow White
TTITLE8=Collibosher
TTITLE9=Call It Something Nice
TTITLE10=Red Ballon
TTITLE11=Wide Eyed Girl On The Wall
TTITLE12=The Autumn Stone
TTITLE13=Don't Burst My Bubble
TTITLE14=Every Litlle Bit Hurts
TTITLE15=Something I Want To Tell You(alternate take)
TTITLE16=I Can't Make It(alternate take)
TTITLE17=Just Passing(alternate take)
TTITLE18=Things Are Going To Get Better(alternate take)
TTITLE19=Take My Time
TTITLE20=Collibosher(alternate take)
TTITLE21=Groovy
TTITLE22=Rollin' over (live)
TTITLE23=If I Were A Carpenter (live)
TTITLE24=Every Little Bit Hurts (live)
TTITLE25=All Or Nothing (live)
TTITLE26=Tin Soldier (live)
EXTD=
EXTT0=
EXTT1=
EXTT2=
EXTT3=
EXTT4=
EXTT5=
EXTT6=
EXTT7=
EXTT8=
EXTT9=
EXTT10=
EXTT11=
EXTT12=
EXTT13=
EXTT14=
EXTT15=
EXTT16=
EXTT17=
EXTT18=
EXTT19=
EXTT20=
EXTT21=
EXTT22=
EXTT23=
EXTT24=
EXTT25=
EXTT26=
PLAYORDER=
